# Blender 3.5.0
# www.blender.org
mtllib center.mtl
o center
v -0.200001 0.313048 0.094082
v -0.197966 0.313048 0.114745
v -0.191938 0.313048 0.134615
v -0.182150 0.313048 0.152927
v -0.168978 0.313048 0.168977
v -0.152927 0.313048 0.182149
v -0.134616 0.313048 0.191937
v -0.114746 0.313048 0.197965
v -0.094083 0.313048 0.200000
v 0.199999 0.313049 0.094082
v 0.197964 0.313049 0.114745
v 0.191937 0.313049 0.134615
v 0.182149 0.313049 0.152926
v 0.168977 0.313049 0.168977
v 0.152926 0.313049 0.182149
v 0.134614 0.313049 0.191937
v 0.114745 0.313049 0.197964
v 0.094081 0.313049 0.200000
v 0.094081 0.313048 -0.200000
v 0.114745 0.313048 -0.197965
v 0.134614 0.313048 -0.191938
v 0.152926 0.313048 -0.182150
v 0.168977 0.313048 -0.168978
v 0.182149 0.313048 -0.152927
v 0.191937 0.313048 -0.134615
v 0.197964 0.313048 -0.114746
v 0.199999 0.313048 -0.094082
v -0.200001 0.313048 -0.094082
v -0.197966 0.313048 -0.114746
v -0.191938 0.313048 -0.134615
v -0.182150 0.313048 -0.152927
v -0.168978 0.313048 -0.168978
v -0.152928 0.313048 -0.182150
v -0.134616 0.313048 -0.191938
v -0.114746 0.313048 -0.197965
v -0.094083 0.313048 -0.200000
v -0.191540 0.038732 0.113355
v -0.193325 0.038732 0.093644
v -0.191541 0.313048 0.113355
v -0.185856 0.038732 0.132096
v -0.185856 0.313048 0.132095
v -0.176676 0.038732 0.149269
v -0.176677 0.313048 0.149269
v -0.164323 0.038732 0.164322
v -0.164323 0.313048 0.164322
v -0.149270 0.038732 0.176676
v -0.149270 0.313048 0.176676
v -0.132096 0.038732 0.185855
v -0.132096 0.313048 0.185855
v -0.113356 0.038732 0.191540
v -0.113356 0.313048 0.191540
v -0.093645 0.038732 0.193324
v -0.093645 0.313048 0.193324
v 0.193324 0.313049 0.093644
v 0.193324 0.038733 0.093644
v 0.191540 0.038733 0.113355
v 0.185855 0.038733 0.132095
v 0.176676 0.038733 0.149269
v 0.164322 0.038733 0.164322
v 0.149269 0.038733 0.176676
v 0.132095 0.038733 0.185855
v 0.113355 0.038733 0.191540
v 0.093644 0.038733 0.193324
v 0.093644 0.313048 -0.193325
v 0.093644 0.038732 -0.193325
v 0.113355 0.038732 -0.191540
v 0.132095 0.038732 -0.185856
v 0.149269 0.038733 -0.176676
v 0.164322 0.038733 -0.164322
v 0.176675 0.038733 -0.149270
v 0.185855 0.038733 -0.132096
v 0.191540 0.038733 -0.113356
v 0.193324 0.038733 -0.093645
v -0.193325 0.313048 -0.093645
v -0.193325 0.038732 -0.093644
v -0.191541 0.038732 -0.113356
v -0.185856 0.038732 -0.132096
v -0.176676 0.038732 -0.149270
v -0.164323 0.038732 -0.164322
v -0.149270 0.038732 -0.176676
v -0.132096 0.038732 -0.185855
v -0.113356 0.038732 -0.191540
v -0.093645 0.038732 -0.193324
v -0.193325 0.313048 0.093644
v 0.191539 0.313049 0.113355
v 0.185855 0.313049 0.132095
v 0.176675 0.313049 0.149269
v 0.164322 0.313049 0.164322
v 0.149269 0.313049 0.176675
v 0.132095 0.313049 0.185855
v 0.113355 0.313049 0.191540
v 0.093644 0.313049 0.193324
v 0.113355 0.313048 -0.191540
v 0.132095 0.313048 -0.185856
v 0.149269 0.313048 -0.176676
v 0.164321 0.313048 -0.164323
v 0.176675 0.313048 -0.149270
v 0.185855 0.313048 -0.132096
v 0.191539 0.313048 -0.113356
v 0.193324 0.313048 -0.093645
v -0.191541 0.313048 -0.113356
v -0.185856 0.313048 -0.132096
v -0.176677 0.313048 -0.149270
v -0.164323 0.313048 -0.164323
v -0.149270 0.313048 -0.176676
v -0.132096 0.313048 -0.185856
v -0.113356 0.313048 -0.191540
v -0.093645 0.313048 -0.193325
v -0.200001 0.350000 0.094082
v -0.197966 0.350000 0.114745
v -0.191938 0.350000 0.134615
v -0.182150 0.350000 0.152927
v -0.168978 0.350000 0.168977
v -0.152928 0.350000 0.182149
v -0.134616 0.350000 0.191937
v -0.114746 0.350000 0.197965
v -0.094083 0.350000 0.200000
v 0.197964 0.350000 0.114745
v 0.199999 0.350000 0.094082
v 0.191937 0.350000 0.134615
v 0.182149 0.350000 0.152926
v 0.168977 0.350000 0.168977
v 0.152926 0.350000 0.182149
v 0.134614 0.350000 0.191937
v 0.114745 0.350000 0.197964
v 0.094081 0.350000 0.200000
v 0.114745 0.350000 -0.197965
v 0.094081 0.350000 -0.200000
v 0.134614 0.350000 -0.191938
v 0.152926 0.350000 -0.182150
v 0.168976 0.350000 -0.168978
v 0.182149 0.350000 -0.152927
v 0.191937 0.350000 -0.134615
v 0.197964 0.350000 -0.114746
v 0.199999 0.350000 -0.094082
v -0.197966 0.350000 -0.114746
v -0.200001 0.350000 -0.094082
v -0.191938 0.350000 -0.134615
v -0.182150 0.350000 -0.152927
v -0.168978 0.350000 -0.168978
v -0.152928 0.350000 -0.182150
v -0.134616 0.350000 -0.191938
v -0.114746 0.350000 -0.197965
v -0.094083 0.350000 -0.200000
v -0.179271 0.365095 0.091409
v -0.177519 0.365095 0.109198
v -0.172571 0.365095 0.125510
v -0.164535 0.365095 0.140543
v -0.153721 0.365095 0.153720
v -0.140544 0.365095 0.164534
v -0.125511 0.365095 0.172570
v -0.109199 0.365095 0.177518
v -0.091410 0.365095 0.179270
v 0.177517 0.365096 0.109198
v 0.179269 0.365096 0.091409
v 0.172569 0.365096 0.125510
v 0.164534 0.365096 0.140543
v 0.153720 0.365096 0.153720
v 0.140543 0.365096 0.164534
v 0.125510 0.365096 0.172569
v 0.109198 0.365096 0.177518
v 0.091408 0.365096 0.179270
v 0.109198 0.365095 -0.177518
v 0.091408 0.365095 -0.179271
v 0.125510 0.365095 -0.172570
v 0.140543 0.365095 -0.164535
v 0.153720 0.365095 -0.153721
v 0.164534 0.365095 -0.140544
v 0.172569 0.365096 -0.125511
v 0.177517 0.365096 -0.109199
v 0.179269 0.365096 -0.091409
v -0.177519 0.365095 -0.109199
v -0.179271 0.365095 -0.091409
v -0.172571 0.365095 -0.125511
v -0.164535 0.365095 -0.140544
v -0.153721 0.365095 -0.153721
v -0.140545 0.365095 -0.164535
v -0.125511 0.365095 -0.172570
v -0.109199 0.365095 -0.177518
v -0.091410 0.365095 -0.179270
vn -0.9988 -0.0000 -0.0491
vn -0.9988 -0.0000 0.0491
vn 0.0491 -0.0000 -0.9988
vn -0.0491 -0.0000 -0.9988
vn -0.0491 -0.0000 0.9988
vn 0.0491 -0.0000 0.9988
vn 0.9988 -0.0000 0.0491
vn 0.9988 -0.0000 -0.0491
vn -0.9808 -0.0000 0.1951
vn -0.9239 -0.0000 0.3827
vn -0.8315 -0.0000 0.5556
vn -0.7071 -0.0000 0.7071
vn -0.5556 -0.0000 0.8315
vn -0.3827 -0.0000 0.9239
vn -0.1951 -0.0000 0.9808
vn -0.0000 -1.0000 -0.0000
vn -0.1951 -0.0000 -0.9808
vn -0.3827 -0.0000 -0.9239
vn -0.5556 -0.0000 -0.8315
vn -0.7071 -0.0000 -0.7071
vn -0.8315 -0.0000 -0.5556
vn -0.9239 -0.0000 -0.3827
vn -0.9808 -0.0000 -0.1951
vn 0.9808 -0.0000 -0.1951
vn 0.9239 -0.0000 -0.3827
vn 0.8315 -0.0000 -0.5556
vn 0.7071 -0.0000 -0.7071
vn 0.5556 -0.0000 -0.8315
vn 0.3827 -0.0000 -0.9239
vn 0.1951 -0.0000 -0.9808
vn 0.1951 -0.0000 0.9808
vn 0.3827 -0.0000 0.9239
vn 0.5556 -0.0000 0.8315
vn 0.7071 -0.0000 0.7071
vn 0.8315 -0.0000 0.5556
vn 0.9239 -0.0000 0.3827
vn 0.9808 -0.0000 0.1951
vn 0.9990 -0.0000 0.0451
vn 0.9815 -0.0000 0.1912
vn 0.1912 -0.0000 0.9815
vn 0.0451 -0.0000 0.9990
vn 0.0451 -0.0000 -0.9990
vn 0.1912 -0.0000 -0.9815
vn 0.9815 -0.0000 -0.1912
vn 0.9990 -0.0000 -0.0451
vn -0.9990 -0.0000 -0.0451
vn -0.9815 -0.0000 -0.1912
vn -0.1912 -0.0000 -0.9815
vn -0.0451 -0.0000 -0.9990
vn -0.1912 -0.0000 0.9815
vn -0.0451 -0.0000 0.9990
vn -0.9815 -0.0000 0.1912
vn -0.9990 -0.0000 0.0451
vn -0.5861 0.8098 0.0276
vn -0.5859 0.8099 0.0299
vn -0.5696 0.8138 0.1152
vn -0.5705 0.8137 0.1113
vn -0.5324 0.8169 0.2219
vn -0.5335 0.8168 0.2194
vn -0.4770 0.8188 0.3195
vn -0.4778 0.8187 0.3184
vn -0.4053 0.8194 0.4053
vn -0.3195 0.8188 0.4770
vn -0.3184 0.8187 0.4778
vn -0.2219 0.8169 0.5324
vn -0.2194 0.8168 0.5335
vn -0.1152 0.8138 0.5696
vn -0.1113 0.8137 0.5705
vn -0.0299 0.8099 0.5859
vn -0.0276 0.8098 0.5861
vn 0.5706 0.8137 0.1113
vn 0.5696 0.8138 0.1152
vn 0.5859 0.8098 0.0299
vn 0.5861 0.8097 0.0276
vn 0.5335 0.8168 0.2194
vn 0.5324 0.8169 0.2219
vn 0.4778 0.8187 0.3184
vn 0.4770 0.8187 0.3195
vn 0.4054 0.8194 0.4054
vn 0.3184 0.8187 0.4778
vn 0.3195 0.8187 0.4770
vn 0.2194 0.8168 0.5335
vn 0.2219 0.8169 0.5324
vn 0.1113 0.8137 0.5706
vn 0.1152 0.8138 0.5696
vn 0.0276 0.8098 0.5861
vn 0.0299 0.8098 0.5859
vn 0.1113 0.8137 -0.5705
vn 0.1152 0.8138 -0.5696
vn 0.0299 0.8099 -0.5859
vn 0.0276 0.8098 -0.5861
vn 0.2194 0.8168 -0.5335
vn 0.2219 0.8169 -0.5324
vn 0.3184 0.8187 -0.4778
vn 0.3195 0.8188 -0.4770
vn 0.4054 0.8194 -0.4054
vn 0.4053 0.8194 -0.4054
vn 0.4778 0.8187 -0.3184
vn 0.4770 0.8188 -0.3195
vn 0.5335 0.8168 -0.2194
vn 0.5324 0.8169 -0.2219
vn 0.5706 0.8137 -0.1113
vn 0.5696 0.8138 -0.1152
vn 0.5861 0.8097 -0.0276
vn 0.5859 0.8098 -0.0299
vn -0.5705 0.8137 -0.1113
vn -0.5696 0.8138 -0.1152
vn -0.5859 0.8099 -0.0299
vn -0.5861 0.8098 -0.0276
vn -0.5335 0.8168 -0.2194
vn -0.5324 0.8169 -0.2219
vn -0.4778 0.8187 -0.3184
vn -0.4770 0.8188 -0.3195
vn -0.4054 0.8194 -0.4053
vn -0.3184 0.8187 -0.4778
vn -0.3195 0.8188 -0.4770
vn -0.2194 0.8168 -0.5335
vn -0.2219 0.8169 -0.5324
vn -0.1112 0.8137 -0.5705
vn -0.1152 0.8138 -0.5696
vn -0.0276 0.8098 -0.5861
vn -0.0299 0.8099 -0.5859
vn -0.0000 1.0000 -0.0000
vt 0.601905 0.933801
vt 0.601905 0.946716
vt 0.601905 0.959134
vt 0.601905 0.970579
vt 0.601905 1.000000
vt 0.601905 0.000000
vt 0.601905 0.029421
vt 0.601905 0.040866
vt 0.601905 0.053284
vt 0.601905 0.066199
vt 0.601905 0.316199
vt 0.601905 0.303284
vt 0.601905 0.290866
vt 0.601905 0.279421
vt 0.601905 0.250000
vt 0.601905 0.220579
vt 0.601905 0.209134
vt 0.601905 0.196716
vt 0.601905 0.183801
vt 0.601905 0.566199
vt 0.601905 0.553284
vt 0.601905 0.540866
vt 0.601905 0.529421
vt 0.601905 0.500000
vt 0.601905 0.470579
vt 0.601905 0.459134
vt 0.601905 0.446716
vt 0.601905 0.433801
vt 0.601905 0.816199
vt 0.601905 0.803284
vt 0.601905 0.790866
vt 0.601905 0.779421
vt 0.601905 0.750000
vt 0.601905 0.720579
vt 0.601905 0.709134
vt 0.601905 0.696716
vt 0.601905 0.683801
vt 0.375000 0.946716
vt 0.375000 0.933801
vt 0.601905 0.946716
vt 0.375000 0.959134
vt 0.601905 0.959134
vt 0.375000 0.970579
vt 0.601905 0.970579
vt 0.375000 0.000000
vt 0.375000 1.000000
vt 0.601905 0.000000
vt 0.601905 1.000000
vt 0.375000 0.029421
vt 0.601905 0.029421
vt 0.375000 0.040866
vt 0.601905 0.040866
vt 0.375000 0.053284
vt 0.601905 0.053284
vt 0.375000 0.066199
vt 0.601905 0.066199
vt 0.601905 0.316199
vt 0.375000 0.316199
vt 0.375000 0.303284
vt 0.375000 0.290866
vt 0.375000 0.279421
vt 0.375000 0.250000
vt 0.375000 0.220579
vt 0.375000 0.209134
vt 0.375000 0.196716
vt 0.375000 0.183801
vt 0.601905 0.566199
vt 0.375000 0.566199
vt 0.375000 0.553284
vt 0.375000 0.540866
vt 0.375000 0.529421
vt 0.375000 0.500000
vt 0.375000 0.470579
vt 0.375000 0.459134
vt 0.375000 0.446716
vt 0.375000 0.433801
vt 0.601905 0.816199
vt 0.375000 0.816199
vt 0.375000 0.803284
vt 0.375000 0.790866
vt 0.375000 0.779421
vt 0.375000 0.750000
vt 0.375000 0.720579
vt 0.375000 0.709134
vt 0.375000 0.696716
vt 0.375000 0.683801
vt 0.601905 0.933801
vt 0.601905 0.303284
vt 0.601905 0.290866
vt 0.601905 0.279421
vt 0.601905 0.250000
vt 0.601905 0.220579
vt 0.601905 0.209134
vt 0.601905 0.196716
vt 0.601905 0.183801
vt 0.601905 0.553284
vt 0.601905 0.540866
vt 0.601905 0.529421
vt 0.601905 0.500000
vt 0.601905 0.470579
vt 0.601905 0.459134
vt 0.601905 0.446716
vt 0.601905 0.433801
vt 0.601905 0.803284
vt 0.601905 0.790866
vt 0.601905 0.779421
vt 0.601905 0.750000
vt 0.601905 0.720579
vt 0.601905 0.709134
vt 0.601905 0.696716
vt 0.601905 0.683801
vt 0.625000 0.933801
vt 0.808801 0.750000
vt 0.625000 0.946716
vt 0.821716 0.748728
vt 0.625000 0.959134
vt 0.834134 0.744961
vt 0.625000 0.970579
vt 0.845579 0.738843
vt 0.625000 1.000000
vt 0.625000 0.000000
vt 0.855611 0.730611
vt 0.625000 0.029421
vt 0.863843 0.720579
vt 0.625000 0.040866
vt 0.869961 0.709134
vt 0.625000 0.053284
vt 0.873728 0.696716
vt 0.625000 0.066199
vt 0.875000 0.683801
vt 0.625000 0.303284
vt 0.821716 0.501272
vt 0.625000 0.316199
vt 0.808801 0.500000
vt 0.625000 0.290866
vt 0.834134 0.505039
vt 0.625000 0.279421
vt 0.845579 0.511157
vt 0.625000 0.250000
vt 0.855611 0.519389
vt 0.625000 0.220579
vt 0.863843 0.529421
vt 0.625000 0.209134
vt 0.869961 0.540866
vt 0.625000 0.196716
vt 0.873728 0.553284
vt 0.625000 0.183801
vt 0.875000 0.566199
vt 0.625000 0.553284
vt 0.626272 0.553284
vt 0.625000 0.566199
vt 0.625000 0.540866
vt 0.630039 0.540866
vt 0.625000 0.529421
vt 0.636157 0.529421
vt 0.625000 0.500000
vt 0.644389 0.519389
vt 0.625000 0.470579
vt 0.654421 0.511157
vt 0.625000 0.459134
vt 0.665866 0.505039
vt 0.625000 0.446716
vt 0.678284 0.501272
vt 0.625000 0.433801
vt 0.691199 0.500000
vt 0.625000 0.803284
vt 0.678284 0.748728
vt 0.625000 0.816199
vt 0.691199 0.750000
vt 0.625000 0.790866
vt 0.665866 0.744961
vt 0.625000 0.779421
vt 0.654421 0.738843
vt 0.625000 0.750000
vt 0.644389 0.730611
vt 0.625000 0.720579
vt 0.636157 0.720579
vt 0.625000 0.709134
vt 0.630039 0.709134
vt 0.625000 0.696716
vt 0.626272 0.696716
vt 0.625000 0.683801
vt 0.808275 0.739288
vt 0.819616 0.738171
vt 0.830015 0.735017
vt 0.839599 0.729894
vt 0.848000 0.723000
vt 0.854894 0.714599
vt 0.860017 0.705015
vt 0.863171 0.694616
vt 0.864288 0.683275
vt 0.819616 0.511829
vt 0.808275 0.510712
vt 0.830015 0.514983
vt 0.839599 0.520106
vt 0.848000 0.527000
vt 0.854894 0.535401
vt 0.860017 0.544985
vt 0.863171 0.555384
vt 0.864288 0.566725
vt 0.636829 0.555384
vt 0.635712 0.566725
vt 0.639984 0.544985
vt 0.645106 0.535401
vt 0.652000 0.527000
vt 0.660401 0.520106
vt 0.669985 0.514983
vt 0.680384 0.511829
vt 0.691725 0.510712
vt 0.680384 0.738171
vt 0.691725 0.739288
vt 0.669985 0.735017
vt 0.660401 0.729894
vt 0.652000 0.723000
vt 0.645106 0.714599
vt 0.639983 0.705015
vt 0.636829 0.694616
vt 0.635712 0.683275
s 1
usemtl dark
f 28/29/1 1/1/2 109/112/2 137/168/1
f 19/20/3 36/37/4 144/182/4 128/151/3
f 9/10/5 18/19/6 126/147/6 117/129/5
f 10/11/7 27/28/8 135/164/8 119/133/7
f 1/1/2 2/2/9 110/114/9 109/112/2
f 2/2/9 3/3/10 111/116/10 110/114/9
f 3/3/10 4/4/11 112/118/11 111/116/10
f 4/4/11 5/5/12 113/120/12 112/118/11
f 5/6/12 6/7/13 114/123/13 113/121/12
f 6/7/13 7/8/14 115/125/14 114/123/13
f 7/8/14 8/9/15 116/127/15 115/125/14
f 8/9/15 9/10/5 117/129/5 116/127/15
f 28/29/16 74/77/16 84/87/16 1/1/16
f 27/28/16 100/103/16 99/102/16 26/27/16
f 19/20/16 64/67/16 108/111/16 36/37/16
f 29/30/16 101/104/16 74/77/16 28/29/16
f 9/10/16 53/56/16 92/95/16 18/19/16
f 30/31/16 102/105/16 101/104/16 29/30/16
f 10/11/16 54/57/16 100/103/16 27/28/16
f 31/32/16 103/106/16 102/105/16 30/31/16
f 1/1/16 84/87/16 39/40/16 2/2/16
f 32/33/16 104/107/16 103/106/16 31/32/16
f 2/2/16 39/40/16 41/42/16 3/3/16
f 33/34/16 105/108/16 104/107/16 32/33/16
f 3/3/16 41/42/16 43/44/16 4/4/16
f 34/35/16 106/109/16 105/108/16 33/34/16
f 143/180/17 144/182/4 36/37/4 35/36/17
f 142/178/18 143/180/17 35/36/17 34/35/18
f 141/176/19 142/178/18 34/35/18 33/34/19
f 140/174/20 141/176/19 33/34/19 32/33/20
f 139/172/21 140/174/20 32/33/20 31/32/21
f 138/170/22 139/172/21 31/32/21 30/31/22
f 136/166/23 138/170/22 30/31/22 29/30/23
f 137/168/1 136/166/23 29/30/23 28/29/1
f 134/162/24 135/164/8 27/28/8 26/27/24
f 133/160/25 134/162/24 26/27/24 25/26/25
f 132/158/26 133/160/25 25/26/25 24/25/26
f 131/156/27 132/158/26 24/25/26 23/24/27
f 130/154/28 131/156/27 23/24/27 22/23/28
f 129/152/29 130/154/28 22/23/28 21/22/29
f 127/149/30 129/152/29 21/22/29 20/21/30
f 128/151/3 127/149/30 20/21/30 19/20/3
f 125/145/31 126/147/6 18/19/6 17/18/31
f 124/143/32 125/145/31 17/18/31 16/17/32
f 123/141/33 124/143/32 16/17/32 15/16/33
f 122/139/34 123/141/33 15/16/33 14/15/34
f 121/137/35 122/139/34 14/15/34 13/14/35
f 120/135/36 121/137/35 13/14/35 12/13/36
f 118/131/37 120/135/36 12/13/36 11/12/37
f 119/133/7 118/131/37 11/12/37 10/11/7
f 4/4/16 43/44/16 45/48/16 5/5/16
f 35/36/16 107/110/16 106/109/16 34/35/16
f 5/6/16 45/47/16 47/50/16 6/7/16
f 36/37/16 108/111/16 107/110/16 35/36/16
f 6/7/16 47/50/16 49/52/16 7/8/16
f 7/8/16 49/52/16 51/54/16 8/9/16
f 8/9/16 51/54/16 53/56/16 9/10/16
f 54/57/38 85/88/39 56/59/39 55/58/38
f 85/88/39 86/89/36 57/60/36 56/59/39
f 86/89/36 87/90/35 58/61/35 57/60/36
f 87/90/35 88/91/34 59/62/34 58/61/35
f 88/91/34 89/92/33 60/63/33 59/62/34
f 89/92/33 90/93/32 61/64/32 60/63/33
f 90/93/32 91/94/40 62/65/40 61/64/32
f 91/94/40 92/95/41 63/66/41 62/65/40
f 64/67/42 93/96/43 66/69/43 65/68/42
f 93/96/43 94/97/29 67/70/29 66/69/43
f 94/97/29 95/98/28 68/71/28 67/70/29
f 95/98/28 96/99/27 69/72/27 68/71/28
f 96/99/27 97/100/26 70/73/26 69/72/27
f 97/100/26 98/101/25 71/74/25 70/73/26
f 98/101/25 99/102/44 72/75/44 71/74/25
f 99/102/44 100/103/45 73/76/45 72/75/44
f 74/77/46 101/104/47 76/79/47 75/78/46
f 101/104/47 102/105/22 77/80/22 76/79/47
f 102/105/22 103/106/21 78/81/21 77/80/22
f 103/106/21 104/107/20 79/82/20 78/81/21
f 104/107/20 105/108/19 80/83/19 79/82/20
f 105/108/19 106/109/18 81/84/18 80/83/19
f 106/109/18 107/110/48 82/85/48 81/84/18
f 107/110/48 108/111/49 83/86/49 82/85/48
f 50/53/50 52/55/51 53/56/51 51/54/50
f 48/51/14 50/53/50 51/54/50 49/52/14
f 46/49/13 48/51/14 49/52/14 47/50/13
f 44/45/12 46/49/13 47/50/13 45/47/12
f 42/43/11 44/46/12 45/48/12 43/44/11
f 40/41/10 42/43/11 43/44/11 41/42/10
f 37/38/52 40/41/10 41/42/10 39/40/52
f 38/39/53 37/38/52 39/40/52 84/87/53
f 55/58/38 73/76/45 100/103/45 54/57/38
f 52/55/51 63/66/41 92/95/41 53/56/51
f 65/68/42 83/86/49 108/111/49 64/67/42
f 75/78/46 38/39/53 84/87/53 74/77/46
f 26/27/16 99/102/16 98/101/16 25/26/16
f 25/26/16 98/101/16 97/100/16 24/25/16
f 24/25/16 97/100/16 96/99/16 23/24/16
f 23/24/16 96/99/16 95/98/16 22/23/16
f 22/23/16 95/98/16 94/97/16 21/22/16
f 21/22/16 94/97/16 93/96/16 20/21/16
f 20/21/16 93/96/16 64/67/16 19/20/16
f 37/38/16 38/39/16 75/78/16 76/79/16 77/80/16 78/81/16 79/82/16 80/83/16 81/84/16 82/85/16 83/86/16 65/68/16 66/69/16 67/70/16 68/71/16 69/72/16 70/73/16 71/74/16 72/75/16 73/76/16 55/58/16 56/59/16 57/60/16 58/61/16 59/62/16 60/63/16 61/64/16 62/65/16 63/66/16 52/55/16 50/53/16 48/51/16 46/49/16 44/46/16 42/43/16 40/41/16
f 18/19/16 92/95/16 91/94/16 17/18/16
f 17/18/16 91/94/16 90/93/16 16/17/16
f 16/17/16 90/93/16 89/92/16 15/16/16
f 15/16/16 89/92/16 88/91/16 14/15/16
f 14/15/16 88/91/16 87/90/16 13/14/16
f 13/14/16 87/90/16 86/89/16 12/13/16
f 12/13/16 86/89/16 85/88/16 11/12/16
f 11/12/16 85/88/16 54/57/16 10/11/16
usemtl white
f 145/183/54 109/113/55 110/115/56 146/184/57
f 146/184/57 110/115/56 111/117/58 147/185/59
f 147/185/59 111/117/58 112/119/60 148/186/61
f 148/186/61 112/119/60 113/122/62 149/187/62
f 149/187/62 113/122/62 114/124/63 150/188/64
f 150/188/64 114/124/63 115/126/65 151/189/66
f 151/189/66 115/126/65 116/128/67 152/190/68
f 152/190/68 116/128/67 117/130/69 153/191/70
f 154/192/71 118/132/72 119/134/73 155/193/74
f 156/194/75 120/136/76 118/132/72 154/192/71
f 157/195/77 121/138/78 120/136/76 156/194/75
f 158/196/79 122/140/79 121/138/78 157/195/77
f 159/197/80 123/142/81 122/140/79 158/196/79
f 160/198/82 124/144/83 123/142/81 159/197/80
f 161/199/84 125/146/85 124/144/83 160/198/82
f 162/200/86 126/148/87 125/146/85 161/199/84
f 163/201/88 127/150/89 128/151/90 164/202/91
f 165/203/92 129/153/93 127/150/89 163/201/88
f 166/204/94 130/155/95 129/153/93 165/203/92
f 167/205/96 131/157/97 130/155/95 166/204/94
f 168/206/98 132/159/99 131/157/97 167/205/96
f 169/207/100 133/161/101 132/159/99 168/206/98
f 170/208/102 134/163/103 133/161/101 169/207/100
f 171/209/104 135/165/105 134/163/103 170/208/102
f 172/210/106 136/167/107 137/169/108 173/211/109
f 174/212/110 138/171/111 136/167/107 172/210/106
f 175/213/112 139/173/113 138/171/111 174/212/110
f 176/214/114 140/175/114 139/173/113 175/213/112
f 177/215/115 141/177/116 140/175/114 176/214/114
f 178/216/117 142/179/118 141/177/116 177/215/115
f 179/217/119 143/181/120 142/179/118 178/216/117
f 180/218/121 144/182/122 143/181/120 179/217/119
f 153/191/70 117/130/69 126/148/87 162/200/86
f 173/211/109 137/169/108 109/113/55 145/183/54
f 164/202/91 128/151/90 144/182/122 180/218/121
f 155/193/74 119/134/73 135/165/105 171/209/104
f 145/183/123 146/184/123 147/185/123 148/186/123 149/187/123 150/188/123 151/189/123 152/190/123 153/191/123 162/200/123 161/199/123 160/198/123 159/197/123 158/196/123 157/195/123 156/194/123 154/192/123 155/193/123 171/209/123 170/208/123 169/207/123 168/206/123 167/205/123 166/204/123 165/203/123 163/201/123 164/202/123 180/218/123 179/217/123 178/216/123 177/215/123 176/214/123 175/213/123 174/212/123 172/210/123 173/211/123
