# Blender 3.5.0
# www.blender.org
mtllib corner.mtl
o corner
v 0.212800 -0.182166 -0.182166
v -0.182166 0.212800 -0.182166
v -0.200000 0.200000 0.200000
v -0.182166 -0.182166 0.212800
v 0.178957 -0.200000 -0.200000
v -0.200000 -0.200000 0.178957
v 0.178957 -0.200000 0.178957
v -0.200000 0.178957 -0.200000
v 0.178957 0.178957 -0.200000
v -0.200000 0.178957 0.178957
v 0.178957 -0.178845 -0.178845
v -0.178845 -0.178845 -0.178845
v -0.178845 0.178957 -0.178845
v 0.178957 0.178957 -0.178845
v -0.178845 -0.178845 0.178957
v 0.178957 -0.178845 0.178957
v -0.178845 0.178957 0.178957
v -0.200000 -0.200000 0.200000
v 0.200000 -0.200000 0.200000
v -0.200000 0.200000 -0.200000
v 0.200000 0.200000 -0.200000
v 0.200000 -0.200000 -0.200000
v 0.212800 0.204018 -0.182166
v 0.206544 0.206544 -0.190883
v 0.208409 0.208409 -0.182166
v 0.204018 0.204018 0.212800
v 0.212800 0.204018 0.204018
v 0.204018 0.212800 0.204018
v 0.208409 0.204018 0.208409
v 0.206945 0.206945 0.206945
v 0.208409 0.208409 0.204018
v 0.204018 0.208409 0.208409
v 0.212800 -0.182166 0.204018
v 0.204018 -0.182166 0.212800
v 0.206544 -0.190883 0.206544
v 0.208409 -0.182166 0.208409
v -0.182166 0.204018 0.212800
v -0.190883 0.206544 0.206544
v -0.182166 0.208409 0.208409
v 0.204018 0.212800 -0.182166
v -0.182166 0.212800 0.204018
vn -1.0000 -0.0000 -0.0000
vn -0.0000 -1.0000 -0.0000
vn -0.0000 -0.0000 -1.0000
vn -0.0000 -0.0000 1.0000
vn -0.0000 -0.5831 0.8124
vn 0.8124 -0.0000 -0.5831
vn 0.8124 -0.5831 -0.0000
vn 1.0000 -0.0000 -0.0000
vn -0.5831 -0.0000 0.8124
vn -0.5831 0.8124 -0.0000
vn -0.0000 0.8124 -0.5831
vn 0.7027 0.7027 -0.1119
vn 0.6995 0.6995 -0.1464
vn 0.6768 0.6768 -0.2896
vn 0.5774 0.5773 0.5774
vn 0.5774 0.5774 0.5773
vn 0.5774 0.5774 0.5774
vn 0.7027 -0.1119 0.7027
vn 0.6995 -0.1464 0.6995
vn 0.6768 -0.2896 0.6768
vn -0.1119 0.7027 0.7027
vn -0.1464 0.6995 0.6995
vn -0.2896 0.6768 0.6768
vn -0.0000 0.7071 0.7071
vn 0.7071 0.7071 -0.0000
vn 0.7071 -0.0000 0.7071
vn -0.0000 1.0000 -0.0000
vt 0.192847 0.066874
vt 0.183635 0.494019
vt 0.335865 0.447671
vt 0.192847 0.236207
vt 0.451720 0.190938
vt 0.451720 0.443791
vt 0.335865 0.185531
vt 0.189041 0.483759
vt 0.451720 0.585641
vt 0.587191 0.180678
vt 0.445341 0.322529
vt 0.074159 0.368877
vt 0.700177 0.437411
vt 0.074159 0.483759
vt 0.700177 0.322529
vt 0.587191 0.065795
vt 0.330458 0.437411
vt 0.336838 0.700524
vt 0.583311 0.694144
vt 0.336838 0.585641
vt 0.583311 0.579262
vt 0.702074 0.180678
vt 0.445341 0.437411
vt 0.585295 0.437411
vt 0.698194 0.694144
vt 0.583311 0.934205
vt 0.174265 0.625610
vt 0.593605 0.174265
vt 0.065795 0.625610
vt 0.583311 0.825735
vt 0.823371 0.825735
vt 0.691780 0.825735
vt 0.823371 0.934205
vt 0.589724 0.687731
vt 0.702074 0.174265
vt 0.589724 0.579262
vt 0.691780 0.934205
vt 0.065795 0.734079
vt 0.931841 0.825735
vt 0.693764 0.430998
vt 0.693764 0.322529
vt 0.174265 0.734079
vt 0.593605 0.065795
vt 0.698194 0.687731
vt 0.931841 0.934205
vt 0.585295 0.430998
vt 0.451720 0.322529
vt 0.067779 0.368877
vt 0.330458 0.190938
vt 0.330458 0.069676
vt 0.067779 0.490139
vt 0.330458 0.443791
vt 0.330458 0.700524
vt 0.198867 0.237286
vt 0.330458 0.579262
vt 0.190510 0.151541
vt 0.198867 0.065795
vt 0.451720 0.579262
vt 0.189041 0.490139
vt 0.184778 0.149658
vt 0.187486 0.151541
vt 0.184778 0.151541
vt 0.065795 0.151541
vt 0.452938 0.068458
vt 0.068262 0.149658
vt 0.452938 0.065795
vt 0.455601 0.068458
vt 0.068262 0.153423
vt 0.067028 0.150599
vt 0.452938 0.067127
vt 0.067440 0.151541
vt 0.068262 0.151541
vt 0.067028 0.152482
vt 0.454269 0.068458
vt 0.066561 0.494019
vt 0.076331 0.066874
vt 0.335865 0.065795
vt 0.335865 0.068458
vt 0.065795 0.492122
vt 0.333222 0.067692
vt 0.335865 0.067127
vt 0.452938 0.185531
vt 0.453704 0.188174
vt 0.453704 0.445774
vt 0.454269 0.185531
vt 0.184778 0.153423
vt 0.452938 0.447671
vt 0.455601 0.185531
vt 0.076331 0.236207
s 1
usemtl corner
f 3/6/1 10/23/1 18/47/1
f 7/14/2 22/59/2 19/51/2
f 9/20/3 20/53/3 21/55/3
f 26/64/4 4/7/4 34/78/4
f 9/21/2 13/34/2 8/19/2
f 4/7/5 18/49/5 19/50/5
f 1/1/6 22/57/6 21/56/6
f 7/15/3 15/40/3 16/41/3
f 9/22/1 11/28/1 14/35/1
f 12/29/2 16/42/2 15/38/2
f 12/30/3 14/37/3 11/26/3
f 17/45/1 12/31/1 15/39/1
f 10/24/3 15/40/3 6/13/3
f 10/25/2 13/34/2 17/44/2
f 7/16/1 11/28/1 5/10/1
f 33/75/7 35/79/7 19/51/7
f 23/60/8 33/76/8 1/1/8
f 37/82/9 38/83/9 3/5/9
f 2/3/10 20/52/10 3/6/10
f 40/86/11 24/61/11 21/56/11
f 40/86/12 25/62/13 24/61/14
f 25/62/13 23/60/12 24/61/14
f 26/63/15 30/71/16 32/73/15
f 27/65/16 30/71/16 29/69/17
f 32/73/15 31/72/16 28/68/17
f 33/77/18 36/81/19 35/80/20
f 36/81/19 34/78/18 35/80/20
f 37/82/21 39/85/22 38/83/23
f 39/85/22 41/88/21 38/83/23
f 41/88/21 32/74/24 28/67/24
f 39/85/22 26/64/24 32/74/24
f 28/68/25 25/62/13 40/86/12
f 31/72/25 23/60/12 25/62/13
f 34/78/18 29/70/26 26/64/26
f 36/81/19 27/66/26 29/70/26
f 41/89/27 40/86/27 2/4/27
f 3/6/1 20/52/1 10/23/1
f 20/52/1 8/17/1 10/23/1
f 10/23/1 6/11/1 18/47/1
f 18/48/2 6/12/2 7/14/2
f 7/14/2 5/8/2 22/59/2
f 19/51/2 18/48/2 7/14/2
f 22/58/3 5/9/3 9/20/3
f 9/20/3 8/18/3 20/53/3
f 21/55/3 22/58/3 9/20/3
f 26/64/4 37/82/4 4/7/4
f 9/21/2 14/36/2 13/34/2
f 19/50/5 35/80/5 34/78/5
f 34/78/5 4/7/5 19/50/5
f 21/56/6 24/61/6 23/60/6
f 23/60/6 1/1/6 21/56/6
f 7/15/3 6/13/3 15/40/3
f 9/22/1 5/10/1 11/28/1
f 12/29/2 11/27/2 16/42/2
f 12/30/3 13/32/3 14/37/3
f 17/45/1 13/33/1 12/31/1
f 10/24/3 17/46/3 15/40/3
f 10/25/2 8/19/2 13/34/2
f 7/16/1 16/43/1 11/28/1
f 22/59/7 1/2/7 19/51/7
f 1/2/7 33/75/7 19/51/7
f 23/60/8 27/65/8 33/76/8
f 18/49/9 4/7/9 3/5/9
f 4/7/9 37/82/9 3/5/9
f 3/6/10 38/84/10 41/87/10
f 41/87/10 2/3/10 3/6/10
f 20/54/11 2/4/11 21/56/11
f 2/4/11 40/86/11 21/56/11
f 26/63/15 29/69/17 30/71/16
f 27/65/16 31/72/16 30/71/16
f 32/73/15 30/71/16 31/72/16
f 41/88/21 39/85/22 32/74/24
f 39/85/22 37/82/21 26/64/24
f 28/68/25 31/72/25 25/62/13
f 31/72/25 27/65/25 23/60/12
f 34/78/18 36/81/19 29/70/26
f 36/81/19 33/77/18 27/66/26
f 41/89/27 28/68/27 40/86/27
